# xmcd
#
# Track frame offsets: 
#        150
#        15647
#        30667
#        46645
#        61180
#        75278
#        85137
#        107813
#        123318
#        143666
#        160656
#        177084
#        194423
#        212544
#        229115
#
# Disc length: 3366 seconds
#
# Revision: 0
# Processed by: cddbd v1.5.2PL0 Copyright (c) Steve Scherf et al.
# Submitted via: ExactAudioCopy v1.0b3
#
DISCID=ae0d240f
DTITLE=The Black Keys - Brothers
DYEAR=2010
DGENRE=Blues
TTITLE0=Everlasting Light
TTITLE1=Next Girl
TTITLE2=Tighten Up
TTITLE3=Howlin' For You
TTITLE4=She's Long Gone
TTITLE5=Black Mud
TTITLE6=The Only One
TTITLE7=Too Afraid To Love
TTITLE8=Ten Cent Pistol
TTITLE9=Sinister Kid
TTITLE10=The Go Getter
TTITLE11=I'm Not The One
TTITLE12=Unknown Brother
TTITLE13=Never Gonna Give You Up
TTITLE14=These Days
EXTD=
EXTT0=
EXTT1=
EXTT2=
EXTT3=
EXTT4=
EXTT5=
EXTT6=
EXTT7=
EXTT8=
EXTT9=
EXTT10=
EXTT11=
EXTT12=
EXTT13=
EXTT14=
PLAYORDER=
